<svg id="Layer_1" viewBox="0 0 24 24" xmlns="http://www.w3.org/2000/svg" data-name="Layer 1"><path d="m14 19.5c0 .276-.224.5-.5.5h-1.5v3.5c0 .276-.224.5-.5.5h-5c-.276 0-.5-.224-.5-.5s.224-.5.5-.5h4.5v-3h-6.5c-2.481 0-4.5-2.019-4.5-4.5v-9c0-2.481 2.019-4.5 4.5-4.5h7c.276 0 .5.224.5.5s-.224.5-.5.5h-7c-1.93 0-3.5 1.57-3.5 3.5v9c0 1.93 1.57 3.5 3.5 3.5h9c.276 0 .5.224.5.5zm-7-8.5c-1.378 0-2.5-1.122-2.5-2.5s1.122-2.5 2.5-2.5 2.5 1.122 2.5 2.5-1.122 2.5-2.5 2.5zm0-1c.827 0 1.5-.673 1.5-1.5s-.673-1.5-1.5-1.5-1.5.673-1.5 1.5.673 1.5 1.5 1.5zm-3.959 5.429c-.039.273.151.527.424.566.278.042.527-.151.566-.424.209-1.466 1.486-2.571 2.969-2.571s2.76 1.105 2.969 2.571c.038.275.298.464.566.424.273-.039.463-.292.424-.566-.279-1.955-1.981-3.429-3.959-3.429s-3.68 1.474-3.959 3.429zm20.959-11.928v2c0 1.93-1.57 3.5-3.5 3.5h-2.358l-2.302 1.767c-.349.268-.81.312-1.201.118-.393-.193-.637-.586-.637-1.024l-.002-6.359c0-1.93 1.569-3.501 3.499-3.501h3s0 0 0 0c.935 0 1.813.364 2.475 1.025s1.025 1.54 1.025 2.475zm-1 0c0-.668-.26-1.296-.732-1.768s-1.1-.732-1.768-.732h-3.001c-1.378.001-2.499 1.123-2.499 2.501l.002 6.359c0 .182.143.167.229.112l2.437-1.87c.088-.067.194-.104.305-.104h2.528c1.379 0 2.5-1.122 2.5-2.5v-2zm-4 15.499c-2.553 0-4.689 1.911-4.97 4.445-.03.274.168.522.442.552.27.028.521-.168.552-.442.225-2.027 1.934-3.555 3.976-3.555s3.751 1.528 3.976 3.555c.029.276.283.473.552.442.274-.03.473-.278.442-.552-.28-2.534-2.417-4.445-4.97-4.445zm0-1.5c-1.654 0-3-1.346-3-3s1.346-3 3-3 3 1.346 3 3-1.346 3-3 3zm0-1c1.103 0 2-.897 2-2s-.897-2-2-2-2 .897-2 2 .897 2 2 2z"/></svg>